<?xml version="1.0" encoding="UTF-8" standalone="no"?>
<!-- Created with Inkscape (http://www.inkscape.org/) -->

<svg
   xmlns:dc="http://purl.org/dc/elements/1.1/"
   xmlns:cc="http://creativecommons.org/ns#"
   xmlns:rdf="http://www.w3.org/1999/02/22-rdf-syntax-ns#"
   xmlns:svg="http://www.w3.org/2000/svg"
   xmlns="http://www.w3.org/2000/svg"
   xmlns:sodipodi="http://sodipodi.sourceforge.net/DTD/sodipodi-0.dtd"
   xmlns:inkscape="http://www.inkscape.org/namespaces/inkscape"
   width="32px"
   height="32px"
   id="svg3781"
   version="1.1"
   inkscape:version="0.48.4 r"
   sodipodi:docname="New document 3">
  <defs
     id="defs3783" />
  <sodipodi:namedview
     id="base"
     pagecolor="#ffffff"
     bordercolor="#666666"
     borderopacity="1.0"
     inkscape:pageopacity="0.0"
     inkscape:pageshadow="2"
     inkscape:zoom="3.2354309"
     inkscape:cx="-52.954911"
     inkscape:cy="24.8263"
     inkscape:current-layer="layer1"
     showgrid="true"
     inkscape:grid-bbox="true"
     inkscape:document-units="px"
     inkscape:window-width="1280"
     inkscape:window-height="962"
     inkscape:window-x="-8"
     inkscape:window-y="-8"
     inkscape:window-maximized="1" />
  <metadata
     id="metadata3786">
    <rdf:RDF>
      <cc:Work
         rdf:about="">
        <dc:format>image/svg+xml</dc:format>
        <dc:type
           rdf:resource="http://purl.org/dc/dcmitype/StillImage" />
        <dc:title></dc:title>
      </cc:Work>
    </rdf:RDF>
  </metadata>
  <g
     id="layer1"
     inkscape:label="Layer 1"
     inkscape:groupmode="layer">
    <g
       id="g4411"
       transform="translate(-4,0)">
      <rect
         style="color:#000000;fill:#008000;fill-opacity:1;fill-rule:nonzero;stroke:none;stroke-width:0.85656923;marker:none;visibility:visible;display:inline;overflow:visible;enable-background:accumulate"
         id="rect3779"
         width="32"
         height="32"
         x="4"
         y="0" />
      <path
         id="rect4346"
         d="M 5.0625,-1.5 37.5,30.9375 37.5,28.0625 7.9375,-1.5 l -2.875,0 z m 8,0 24.4375,24.4375 0,-2.875 L 15.9375,-1.5 l -2.875,0 z m 8,0 16.4375,16.4375 0,-2.875 L 23.9375,-1.5 l -2.875,0 z m 8,0 8.4375,8.4375 0,-2.875 -5.5625,-5.5625 -2.875,0 z M 2.5,1.0625 l 0,2.875 29.5625,29.5625 2.875,0 L 2.5,1.0625 z m 0,8 0,2.875 21.5625,21.5625 2.875,0 L 2.5,9.0625 z m 0,8 0,2.875 13.5625,13.5625 2.875,0 L 2.5,17.0625 z m 0,8 0,2.875 5.5625,5.5625 2.875,0 L 2.5,25.0625 z"
         style="color:#000000;fill:#808080;fill-opacity:1;fill-rule:nonzero;stroke:none;stroke-width:2;marker:none;visibility:visible;display:inline;overflow:visible;enable-background:accumulate"
         inkscape:connector-curvature="0" />
    </g>
  </g>
</svg>
