<?xml version="1.0" encoding="UTF-8" standalone="no"?>
<!-- Created with Inkscape (http://www.inkscape.org/) -->

<svg
   xmlns:dc="http://purl.org/dc/elements/1.1/"
   xmlns:cc="http://creativecommons.org/ns#"
   xmlns:rdf="http://www.w3.org/1999/02/22-rdf-syntax-ns#"
   xmlns:svg="http://www.w3.org/2000/svg"
   xmlns="http://www.w3.org/2000/svg"
   xmlns:sodipodi="http://sodipodi.sourceforge.net/DTD/sodipodi-0.dtd"
   xmlns:inkscape="http://www.inkscape.org/namespaces/inkscape"
   width="497"
   height="97"
   id="svg5323"
   version="1.1"
   inkscape:version="0.91 r13725"
   sodipodi:docname="logo.svg">
  <defs
     id="defs5325" />
  <sodipodi:namedview
     id="base"
     pagecolor="#ffffff"
     bordercolor="#666666"
     borderopacity="1.0"
     inkscape:pageopacity="0.0"
     inkscape:pageshadow="2"
     inkscape:zoom="1.8108652"
     inkscape:cx="248.5"
     inkscape:cy="48.5"
     inkscape:document-units="px"
     inkscape:current-layer="layer1"
     showgrid="false"
     height="97px"
     inkscape:window-width="1366"
     inkscape:window-height="706"
     inkscape:window-x="-8"
     inkscape:window-y="-8"
     inkscape:window-maximized="1" />
  <metadata
     id="metadata5328">
    <rdf:RDF>
      <cc:Work
         rdf:about="">
        <dc:format>image/svg+xml</dc:format>
        <dc:type
           rdf:resource="http://purl.org/dc/dcmitype/StillImage" />
        <dc:title></dc:title>
      </cc:Work>
    </rdf:RDF>
  </metadata>
  <g
     inkscape:label="Layer 1"
     inkscape:groupmode="layer"
     id="layer1"
     transform="translate(0,-955.36218)">
    <path
       inkscape:connector-curvature="0"
       style="font-style:normal;font-variant:normal;font-weight:normal;font-stretch:normal;font-size:62.86426926px;line-height:125%;font-family:'MV Boli';-inkscape-font-specification:'MV Boli';letter-spacing:0px;word-spacing:0px;fill:#008000;fill-opacity:1;stroke:none"
       d="m 330.54705,971.8622 c -0.63439,5e-5 -1.14246,0.14027 -1.53125,0.40625 -0.38883,0.26607 -0.73399,0.59077 -1,1 -0.26604,0.40932 -0.48233,0.8629 -0.65625,1.34375 -0.17396,0.48094 -0.35789,0.94531 -0.5625,1.375 -0.1228,0.2456 -0.33853,0.408 -0.625,0.5 -0.28651,0.0921 -0.62144,0.1682 -1,0.25 -0.37859,0.0819 -0.75723,0.21078 -1.15625,0.34375 -0.39906,0.13306 -0.75611,0.32832 -1.09375,0.625 -0.33766,0.29676 -0.6289,0.73901 -0.84375,1.28125 -0.21489,0.54233 -0.31251,1.25589 -0.3125,2.15625 -1e-5,0.34792 0.0431,0.68286 0.125,1 0.0819,0.31723 0.21183,0.59822 0.40625,0.84375 0.19439,0.2456 0.47484,0.44031 0.8125,0.59375 0.33764,0.15351 0.73839,0.21879 1.25,0.21875 0.16369,0 0.30391,0.0216 0.40625,0.0625 0.10227,0.041 0.15624,0.14883 0.15625,0.3125 0,0.10235 -0.0109,0.1886 -0.0312,0.25 -0.40929,1.63713 -0.86342,3.21526 -1.375,4.75 -0.5116,1.5348 -1.02991,3.04711 -1.53125,4.5 -0.50137,1.45295 -0.97708,2.85795 -1.4375,4.21875 -0.46044,1.36086 -0.8601,2.65795 -1.1875,3.90625 -0.40929,1.5553 -0.75556,2.9495 -1.0625,4.1875 -0.30697,1.2381 -0.61977,2.4381 -0.90625,3.625 l -1.1875,4.9062 c -0.20465,0.8391 -0.42037,1.5623 -0.625,2.1251 -0.20464,0.5627 -0.37834,1.0282 -0.5625,1.4375 -0.18418,0.4093 -0.34653,0.7976 -0.5,1.125 -0.15348,0.3274 -0.2931,0.6629 -0.375,1.0312 -0.0409,0.1024 -0.0625,0.2312 -0.0625,0.3438 l 0,0.3437 c 0,0.3274 0.0642,0.6629 0.15625,1.0313 0.0921,0.3683 0.23231,0.714 0.40625,1.0312 0.17394,0.3172 0.39022,0.5766 0.65625,0.7813 0.26602,0.2046 0.56915,0.3125 0.9375,0.3125 0.53205,0 1.05034,-0.1624 1.53125,-0.5 0.48088,-0.3377 0.88164,-0.7481 1.25,-1.2188 0.36833,-0.4706 0.70271,-0.9679 0.96875,-1.5 0.26601,-0.532 0.46016,-0.9862 0.5625,-1.375 0.30694,-1.1869 0.54535,-2.2779 0.75,-3.25 0.20462,-0.972 0.42035,-1.9342 0.625,-2.9063 0.20462,-0.972 0.42091,-1.9983 0.65625,-3.0625 0.23532,-1.0641 0.55946,-2.3067 0.96875,-3.7187 0.0818,-0.2865 0.34182,-0.4699 0.8125,-0.5313 l 0.875,-0.125 c 2.39422,-0.4706 4.82559,-0.9679 7.28125,-1.5 2.45561,-0.532 4.8654,-1.1911 7.21875,-1.9687 2.35328,-0.7776 4.61207,-1.708 6.78125,-2.84375 2.1691,-1.1357 4.14745,-2.54071 5.96875,-4.21875 0.65479,-0.59342 1.25938,-1.26329 1.78125,-2 0.52178,-0.73666 0.86749,-1.54675 1.03125,-2.40625 l 0.18745,-1.0625 c 0.18415,-0.8799 0.28121,-1.74392 0.28125,-2.5625 -4e-5,-1.59613 -0.3997,-3.01191 -1.1875,-4.25 -0.7879,-1.23801 -1.79324,-2.30808 -3.03125,-3.21875 -1.23809,-0.91059 -2.61129,-1.64573 -4.15625,-2.21875 -1.54504,-0.57294 -3.09027,-0.99471 -4.625,-1.28125 -0.77766,-0.1432 -1.95502,-0.31578 -3.5,-0.5 -1.54503,-0.18412 -3.36103,-0.3136 -5.46875,-0.375 -0.14327,-0.34784 -0.31585,-0.7367 -0.5,-1.15625 -0.1842,-0.41946 -0.40048,-0.8191 -0.65625,-1.1875 -0.25582,-0.36829 -0.55839,-0.66064 -0.90625,-0.90625 -0.3479,-0.24551 -0.73732,-0.37495 -1.1875,-0.375 z m -284.9375,0.78125 c -0.28654,5e-5 -0.54541,0.1187 -0.75,0.34375 -0.20468,0.22515 -0.36704,0.49592 -0.5,0.84375 -0.13306,0.34793 -0.26195,0.7368 -0.34375,1.15625 -0.0819,0.41955 -0.1364,0.82999 -0.1875,1.21875 -0.0512,0.38886 -0.0734,0.72434 -0.0937,1.03125 -0.0205,0.307 -0.0313,0.53352 -0.0312,0.65625 -0.0614,0.73674 -0.18009,1.59107 -0.34375,2.59375 -0.16376,1.00275 -0.34768,2.03991 -0.5625,3.09375 -0.21491,1.05391 -0.45221,2.08083 -0.6875,3.09375 -0.23538,1.01298 -0.45166,1.92071 -0.65625,2.71875 -0.81859,3.25375 -1.57474,6.06375 -2.25,8.4375 -0.67534,2.37375 -1.28105,4.42705 -1.84375,6.15625 -0.56279,1.7292 -1.07086,3.2199 -1.53125,4.4375 -0.46048,1.2176 -0.89248,2.2774 -1.28125,3.2187 -0.10235,0.2865 -0.19999,0.6749 -0.3125,1.125 -0.11259,0.4503 -0.24147,0.8828 -0.34375,1.3125 -0.10236,0.4298 -0.19945,0.7868 -0.28125,1.0938 -0.0819,0.307 -0.1261,0.4688 -0.1875,0.4687 -0.10235,10e-5 -0.28517,-0.1402 -0.5,-0.4062 -0.2149,-0.266 -0.43174,-0.5799 -0.6875,-0.9688 -0.25583,-0.3888 -0.50447,-0.81 -0.75,-1.25 -0.2456,-0.4399 -0.47212,-0.8288 -0.65625,-1.1562 -1.146,-2.1282 -2.16213,-4.3217 -3.0625,-6.5625 -0.90043,-2.2408 -1.71107,-4.4138 -2.4375,-6.5625 -0.72649,-2.14866 -1.39635,-4.22297 -2,-6.1875 -0.60371,-1.96448 -1.1657,-3.72598 -1.6875,-5.28125 -0.52185,-1.5552 -1.04015,-2.8421 -1.53125,-3.90625 -0.49116,-1.06407 -0.99922,-1.77708 -1.53125,-2.125 -0.45022,-0.40924 -0.93727,-0.81967 -1.5,-1.21875 -0.56277,-0.399 -1.22129,-0.59371 -1.9375,-0.59375 -0.75717,4e-5 -1.38389,0.16239 -1.875,0.5 -0.49114,0.33769 -0.88056,0.74869 -1.1875,1.25 -0.30697,0.5014 -0.56585,1.05261 -0.75,1.65625 -0.18419,0.60371 -0.31474,1.18674 -0.4375,1.71875 l -9.09375,29.4062 -0.81250005,3.1563 c -0.2251,0.8595 -0.36644,1.4544 -0.46875,1.8125 -0.10228,0.3582 -0.15626,0.6176 -0.15625,0.7813 -1e-5,0.2865 0.0653,0.6106 0.21875,0.9687 0.15347,0.3581 0.35841,0.6931 0.59375005,1 0.23532,0.307 0.50554,0.5664 0.8125,0.7813 0.30695,0.2148 0.59929,0.3437 0.90625,0.3437 0.49112,0 0.98784,-0.1947 1.46875,-0.5937 0.48088,-0.3991 0.84818,-1.0036 1.09375,-1.7813 0.0614,-0.2251 0.21239,-0.6792 0.4375,-1.375 0.22509,-0.6957 0.45271,-1.4632 0.71875,-2.3125 0.26602,-0.8492 0.54646,-1.6922 0.8125,-2.5313 0.26602,-0.839 0.47207,-1.5304 0.65625,-2.0625 0.22509,-0.6752 0.52711,-1.5824 0.875,-2.6875 0.34787,-1.105 0.70493,-2.2942 1.09375,-3.5937 0.38879,-1.2994 0.79923,-2.6397 1.21875,-4.0313 0.41949,-1.3915 0.79812,-2.7204 1.15625,-3.9687 0.35809,-1.24826 0.68224,-2.35124 0.96875,-3.34375 0.28648,-0.99246 0.51298,-1.78042 0.65625,-2.3125 0.0409,-0.14322 0.12776,-0.46792 0.28125,-1 0.15346,-0.53203 0.31581,-1.09347 0.5,-1.65625 0.18415,-0.56272 0.3783,-1.04976 0.5625,-1.5 0.18415,-0.45016 0.34595,-0.68747 0.46875,-0.6875 0.12276,3e-5 0.2204,0.0966 0.3125,0.25 0.0921,0.15351 0.1784,0.34822 0.25,0.59375 0.0716,0.2456 0.14715,0.51581 0.21875,0.8125 0.0716,0.29676 0.13685,0.58854 0.21875,0.875 l 0.1875,0.6875 c 0.65481,2.51705 1.38939,5.15392 2.1875,7.90625 0.79805,2.7524 1.71656,5.4965 2.75,8.1875 1.03339,2.691 2.1903,5.2529 3.5,7.7187 1.30964,2.466 2.82195,4.681 4.5,6.6251 0.34785,0.4093 0.74861,0.6795 1.25,0.8125 0.50133,0.133 0.99805,0.1875 1.46875,0.1875 0.79804,0 1.5116,-0.1947 2.15625,-0.5938 0.64456,-0.399 1.23837,-0.9179 1.75,-1.5625 0.51155,-0.6446 0.94466,-1.3581 1.34375,-2.1562 0.39899,-0.7981 0.7555,-1.6082 1.0625,-2.4063 0.69572,-1.7599 1.34345,-3.4237 1.90625,-4.9688 0.5627,-1.5449 1.08155,-2.9936 1.5625,-4.375 0.48084,-1.3812 0.91341,-2.7102 1.3125,-3.9687 0.39899,-1.2585 0.78785,-2.46934 1.15625,-3.65625 0.20459,-0.67528 0.45323,-1.52906 0.75,-2.5625 0.29667,-1.03339 0.61003,-2.16817 0.9375,-3.40625 0.32737,-1.23801 0.65151,-2.52437 0.96875,-3.875 0.31713,-1.35056 0.5879,-2.68974 0.84375,-3.96875 0.25574,-1.27894 0.49249,-2.47844 0.65625,-3.59375 0.16367,-1.11523 0.21869,-2.04563 0.21875,-2.84375 -6e-5,-1.2687 -0.15162,-2.28428 -0.46875,-3.03125 -0.31724,-0.74687 -0.67375,-1.4054 -1.0625,-1.9375 -0.34794,-0.16366 -0.7368,-0.26185 -1.15625,-0.34375 -0.41956,-0.0818 -0.74481,-0.12495 -1.03125,-0.125 z m 421.96875,2.25 c -0.59347,5e-5 -1.09019,0.25837 -1.46875,0.71875 -0.37859,0.46048 -0.68117,1.02304 -0.90625,1.71875 -0.22512,0.69581 -0.3977,1.46275 -0.5,2.28125 -0.10233,0.81858 -0.1886,1.55428 -0.25,2.25 l -7.90625,31.4375 c -0.10232,0.3888 -0.21019,0.8532 -0.3125,1.375 -0.10233,0.5218 -0.18915,1.0407 -0.28125,1.5625 -0.0921,0.5219 -0.1886,1.0191 -0.25,1.5 -0.0614,0.4809 -0.0938,0.8914 -0.0937,1.2188 -10e-6,0.3683 0.0647,0.768 0.1875,1.1875 0.12278,0.4195 0.32772,0.8191 0.59375,1.1875 0.26602,0.3683 0.59072,0.6709 1,0.9062 0.40927,0.2354 0.91622,0.3438 1.46875,0.3438 0.63436,0 1.1322,-0.2055 1.53125,-0.625 0.39903,-0.4195 0.71239,-0.9384 0.9375,-1.5625 0.22509,-0.6242 0.38685,-1.3048 0.46875,-2.0313 0.0819,-0.7264 0.12499,-1.4173 0.125,-2.0313 l 0,-0.7187 c 0.10231,-0.7162 0.2641,-1.6347 0.46875,-2.75 0.20462,-1.1153 0.44303,-2.3034 0.75,-3.5313 l 7.6875,-30.74995 c 0.0409,-0.20459 0.0948,-0.41009 0.15625,-0.625 0.0614,-0.21482 0.0937,-0.39875 0.0937,-0.5625 -3e-5,-0.3683 -0.12946,-0.693 -0.375,-1 -0.24558,-0.30691 -0.54815,-0.56633 -0.90625,-0.78125 -0.35813,-0.21482 -0.75723,-0.40842 -1.15625,-0.53125 -0.39906,-0.12278 -0.73511,-0.18745 -1.0625,-0.1875 z m -206.84375,1.84375 c -4.21553,5e-5 -7.71752,1.22112 -10.53125,3.65625 -2.81376,2.43521 -4.21877,5.23442 -4.21875,8.40625 -2e-5,2.25103 0.45413,4.63925 1.375,7.15625 -4.82942,1.985 -8.43929,4.20065 -10.84375,6.65625 -2.40448,2.4556 -3.625,5.1675 -3.625,8.0937 0,3.0491 1.34028,5.6644 4.03125,7.8438 2.69096,2.1794 5.51119,3.25 8.4375,3.25 2.5784,0 5.30211,-0.5188 8.1875,-1.5625 2.88535,-1.0436 5.59716,-2.4923 8.09375,-4.375 4.52242,3.97 8.78113,5.9375 12.8125,5.9375 0.79804,0 1.46735,-0.2378 1.96875,-0.7187 0.50132,-0.4809 0.74995,-1.065 0.75,-1.7813 -5e-5,-2.0463 -0.93957,-3.1488 -2.78125,-3.3125 -3.00819,-0.307 -5.81819,-1.5496 -8.4375,-3.7188 2.21004,-2.0258 4.12254,-3.9821 5.71875,-5.875 1.59612,-1.8928 2.60147,-3.2439 3.03125,-4.0625 0.42969,-0.8185 0.65621,-1.4883 0.65625,-2 -4e-5,-0.67523 -0.3134,-1.27981 -0.9375,-1.7812 -0.62418,-0.50133 -1.30428,-0.74998 -2,-0.75 -1.02322,2e-5 -1.70498,0.45416 -2.09375,1.375 -1.69852,3.2947 -4.31325,6.5361 -7.8125,9.6875 -3.86765,-4.4201 -6.51586,-8.051 -7.96875,-10.875 5.48422,-2.39422 9.37563,-4.59852 11.71875,-6.59375 2.34304,-1.99518 3.53122,-4.22216 3.53125,-6.71875 -3e-5,-2.10772 -0.92988,-3.97653 -2.8125,-5.5625 -1.88268,-1.58589 -3.97857,-2.37495 -6.25,-2.375 z M 93.8283,981.26845 c -0.63439,4e-5 -1.14135,0.15216 -1.46875,0.5 -0.32743,0.34793 -0.53348,0.73623 -0.65625,1.125 -0.16372,0.49117 -0.25055,0.85901 -0.28125,1.125 -0.0307,0.26607 -0.0625,0.49257 -0.0625,0.65625 l 0,0.3125 c 0,0.42977 0.0108,0.75447 0.0312,1 0.0204,0.2456 0.0312,0.51525 0.0312,0.78125 -10e-6,0.22513 -0.0329,0.52771 -0.125,0.90625 -0.0921,0.37861 -0.24256,0.86511 -0.40625,1.46875 -0.16372,0.60371 -0.35843,1.31782 -0.59375,2.1875 -0.23535,0.86973 -0.48399,1.90689 -0.75,3.09375 -0.0819,0.32744 -0.20052,0.66238 -0.34375,1 -0.14326,0.33767 -0.39246,0.50003 -0.78125,0.5 l -4.125,0 c -0.30696,3e-5 -0.56694,0.11812 -0.8125,0.3125 -0.24557,0.19443 -0.47153,0.41126 -0.625,0.6875 -0.15348,0.27628 -0.26185,0.55728 -0.34375,0.84375 -0.0819,0.28652 -0.12501,0.5346 -0.125,0.71875 -10e-6,0.47068 0.151,0.89191 0.4375,1.25 0.28648,0.3581 0.64355,0.6607 1.09375,0.9062 0.45019,0.2456 0.97872,0.4193 1.53125,0.5625 0.55251,0.1433 1.09293,0.2296 1.625,0.25 -0.42975,1.6985 -0.8612,3.4606 -1.25,5.3125 -0.38882,1.852 -0.56251,3.6561 -0.5625,5.375 -10e-6,1.2688 0.16289,2.4575 0.53125,3.5625 0.36833,1.1051 0.91899,2.0776 1.625,2.9063 0.70598,0.8288 1.56032,1.4879 2.59375,1.9688 1.0334,0.4809 2.23235,0.7187 3.5625,0.7187 0.85946,0 1.73536,-0.097 2.65625,-0.2812 0.92084,-0.1842 1.78486,-0.5401 2.5625,-1.0313 0.45017,-0.2865 0.92588,-0.6106 1.4375,-0.9687 0.51156,-0.3581 0.99806,-0.726 1.46875,-1.125 0.47063,-0.399 0.91343,-0.8203 1.3125,-1.25 0.39902,-0.4298 0.72316,-0.8623 0.96875,-1.3126 0.7162,-1.2892 1.40819,-2.5647 2.09375,-3.8437 0.6855,-1.279 1.2038,-2.575 1.53125,-3.8438 0.0204,-0.082 0.0312,-0.18 0.0312,-0.3437 -4e-5,-0.2251 -0.075,-0.43 -0.1875,-0.5938 -0.11258,-0.1636 -0.24257,-0.3039 -0.40625,-0.4062 -0.16374,-0.1023 -0.32609,-0.1779 -0.5,-0.2188 -0.17397,-0.041 -0.31474,-0.062 -0.4375,-0.062 -0.38883,10e-5 -0.72322,0.1942 -0.96875,0.5625 -0.71626,0.9823 -1.49453,2.0092 -2.34375,3.0938 -0.84926,1.0846 -1.73597,2.0894 -2.6875,3 -0.95159,0.9106 -1.95638,1.6566 -3,2.25 -1.04367,0.5935 -2.10294,0.9063 -3.1875,0.9062 -0.63439,10e-5 -1.17427,-0.1288 -1.59375,-0.3437 -0.41952,-0.2149 -0.75446,-0.5067 -1,-0.875 -0.24558,-0.3683 -0.42894,-0.7799 -0.53125,-1.2813 -0.10237,-0.5013 -0.15627,-1.0412 -0.15625,-1.5937 -2e-5,-0.4297 0.0642,-1.0139 0.15625,-1.7813 0.0921,-0.7673 0.24308,-1.6529 0.4375,-2.625 0.19439,-0.972 0.43224,-2.0307 0.71875,-3.1562 0.28647,-1.1255 0.61118,-2.2711 1,-3.4375 0.18416,0 0.42201,-0.022 0.71875,-0.062 0.2967,-0.041 0.68556,-0.074 1.15625,-0.1563 0.47064,-0.082 1.05367,-0.2112 1.71875,-0.375 0.66505,-0.16364 1.4649,-0.37936 2.40625,-0.62495 0.63434,-0.16369 1.29343,-0.33626 1.96875,-0.5 0.67528,-0.16368 1.31333,-0.29423 1.9375,-0.4375 0.62411,-0.14322 1.1969,-0.28344 1.71875,-0.40625 0.52179,-0.12276 0.9538,-0.21985 1.28125,-0.28125 0.38878,-0.0818 0.76741,-0.20104 1.15625,-0.375 0.38877,-0.17392 0.72427,-0.41122 1.03125,-0.6875 0.30692,-0.27623 0.55556,-0.59015 0.75,-0.96875 0.19441,-0.37856 0.31246,-0.82135 0.3125,-1.3125 -4e-5,-0.36832 -0.0863,-0.64987 -0.25,-0.875 -0.16374,-0.22507 -0.36924,-0.40844 -0.625,-0.53125 -0.25583,-0.12275 -0.56863,-0.1988 -0.90625,-0.25 -0.33768,-0.0511 -0.67262,-0.0937 -1,-0.0937 -0.22513,3e-5 -0.50613,0.0222 -0.84375,0.0937 -0.33768,0.0717 -0.72765,0.16873 -1.21875,0.28125 -0.49116,0.11258 -1.09575,0.27382 -1.78125,0.4375 -0.68556,0.16374 -1.4962,0.31586 -2.4375,0.5 -0.85949,0.16374 -1.70306,0.33632 -2.5625,0.5 -0.8595,0.16374 -1.86373,0.34711 -2.96875,0.53125 l 2.25,-8.59375 c 0.10228,-0.40924 0.15623,-0.89462 0.15625,-1.40625 -2e-5,-0.47062 -0.0647,-0.93555 -0.1875,-1.40625 -0.1228,-0.47062 -0.31696,-0.88162 -0.5625,-1.25 -0.24559,-0.36831 -0.54871,-0.64986 -0.9375,-0.875 -0.38883,-0.22506 -0.85375,-0.34371 -1.40625,-0.34375 z m 244.5625,0.21875 c 1.14594,4e-5 2.31308,0.0432 3.5,0.125 1.18686,0.0819 2.32164,0.2448 3.40625,0.53125 1.08453,0.28653 2.11035,0.70831 3.03125,1.28125 0.92082,0.57302 1.6673,1.37232 2.28125,2.375 0.16367,0.32745 0.30445,0.69474 0.4375,1.09375 0.13292,0.39907 0.21871,0.86345 0.21875,1.375 -4e-5,0.85951 -0.35599,1.64913 -1.03125,2.40625 -0.67534,0.75719 -1.56205,1.52412 -2.6875,2.28125 -1.06415,0.71625 -2.28523,1.3969 -3.65625,2.03125 -1.3711,0.63439 -2.80846,1.22876 -4.3125,1.78125 -1.50411,0.55254 -3.01697,1.02881 -4.53125,1.46875 -1.51433,0.43999 -2.91988,0.80728 -4.25,1.09375 -0.49115,0.10234 -0.99922,0.21021 -1.53125,0.3125 -0.53207,0.10234 -1.03959,0.19945 -1.5,0.28125 -0.46045,0.0819 -0.8601,0.1364 -1.1875,0.1875 -0.32744,0.051 -0.53235,0.094 -0.59375,0.094 -0.10232,0 -0.1568,-0.053 -0.1875,-0.125 -0.0307,-0.072 -0.0313,-0.14766 -0.0312,-0.25 0,-0.0818 0.0216,-0.21183 0.0625,-0.40625 0.0409,-0.19439 0.0636,-0.42089 0.125,-0.65625 0.0614,-0.23531 0.14715,-0.47261 0.21875,-0.6875 0.0716,-0.21484 0.11535,-0.38798 0.15625,-0.53125 0.14323,-0.53203 0.34872,-1.20245 0.625,-2.03125 0.27624,-0.82875 0.57881,-1.70466 0.90625,-2.65625 0.32739,-0.95153 0.67312,-1.93475 1.03125,-2.9375 0.3581,-1.00269 0.70381,-1.97457 1.03125,-2.875 0.3274,-0.90036 0.65099,-1.711 0.9375,-2.4375 0.28647,-0.72642 0.49252,-1.27819 0.65625,-1.6875 0.0409,-0.10228 0.1159,-0.23172 0.1875,-0.375 0.0716,-0.14321 0.14766,-0.2511 0.25,-0.3125 0.20461,-0.12275 0.60427,-0.2204 1.1875,-0.3125 0.58319,-0.092 1.22069,-0.1886 1.90625,-0.25 0.68551,-0.0614 1.34458,-0.084 1.96875,-0.125 0.62411,-0.0409 1.06802,-0.0625 1.375,-0.0625 z m -77.65625,0.40625 c 0.96176,4e-5 1.75028,0.29127 2.34375,0.84375 0.59341,0.55256 0.87497,1.20084 0.875,1.9375 -3e-5,1.55527 -0.90775,3.03577 -2.71875,4.4375 -1.81106,1.40179 -4.64318,2.93734 -8.53125,4.65625 -0.573,-1.88262 -0.87502,-3.53626 -0.875,-4.96875 -2e-5,-2.08725 0.83164,-3.74145 2.46875,-5 1.63707,-1.25848 3.7772,-1.90621 6.4375,-1.90625 z M 139.8908,990.6122 c -0.79812,3e-5 -1.34988,0.17205 -1.6875,0.46875 -0.33768,0.29675 -0.61757,0.81616 -0.78125,1.59375 l -0.78125,4.09375 c -0.12281,0.59347 -0.30618,1.38254 -0.53125,2.375 -0.22513,0.99255 -0.49534,2.06205 -0.8125,3.18745 -0.31722,1.1256 -0.67427,2.2285 -1.09375,3.3438 -0.41953,1.1153 -0.88389,2.1093 -1.375,2.9687 l -0.78125,1.375 c -0.40929,0.6754 -0.94917,1.4428 -1.59375,2.3125 -0.64463,0.8698 -1.35819,1.7014 -2.15625,2.4688 -0.7981,0.7674 -1.65133,1.4054 -2.53125,1.9375 -0.87995,0.5321 -1.73429,0.8125 -2.59375,0.8125 -0.49114,0 -0.93339,-0.1618 -1.28125,-0.4687 -0.3479,-0.307 -0.61866,-0.6959 -0.84375,-1.1563 -0.22511,-0.4604 -0.38746,-0.9367 -0.5,-1.4688 -0.11253,-0.532 -0.18751,-1.039 -0.1875,-1.4687 -1e-5,-0.4297 0.12887,-1.0672 0.34375,-1.9063 0.21485,-0.8389 0.5072,-1.9198 0.90625,-3.25 0.39903,-1.3301 0.89576,-2.9195 1.46875,-4.8125 0.57297,-1.8928 1.21047,-4.12947 1.90625,-6.68745 0.12277,-0.38878 0.18749,-0.79977 0.1875,-1.25 -1e-5,-0.57295 -0.13969,-1.05945 -0.375,-1.46875 -0.23535,-0.40924 -0.62422,-0.63575 -1.15625,-0.65625 -0.30697,-0.0614 -0.6101,-0.1261 -0.9375,-0.1875 -0.28651,-0.0409 -0.59931,-0.0738 -0.90625,-0.125 -0.30697,-0.0511 -0.55616,-0.0937 -0.78125,-0.0937 -0.0819,0 -0.20052,0.0324 -0.34375,0.0937 -0.14326,0.0614 -0.29482,0.16928 -0.46875,0.3125 -0.17395,0.14327 -0.34653,0.3272 -0.5,0.5625 -0.15349,0.23536 -0.26195,0.51636 -0.34375,0.84375 -0.12279,0.47069 -0.2738,1.03214 -0.4375,1.65625 -0.16372,0.62417 -0.35843,1.37009 -0.59375,2.25 -0.23534,0.87996 -0.50556,1.89605 -0.8125,3.06245 -0.30697,1.1665 -0.64245,2.5278 -1.03125,4.0625 -0.12279,0.4912 -0.3056,1.0322 -0.5,1.6563 -0.19441,0.6242 -0.36755,1.294 -0.53125,2 -0.16371,0.706 -0.31473,1.4304 -0.4375,2.1875 -0.12278,0.7572 -0.15625,1.5241 -0.15625,2.2812 0,1.3507 0.21683,2.6904 0.6875,4.0001 0.47065,1.3097 1.28075,2.4876 2.40625,3.5312 0.24556,0.2251 0.55947,0.463 0.96875,0.7188 0.40926,0.2558 0.83104,0.4828 1.28125,0.6875 0.45018,0.2046 0.89299,0.367 1.3125,0.5 0.41949,0.133 0.76521,0.2187 1.03125,0.2187 1.33012,0 2.55175,-0.3133 3.6875,-0.9375 1.13571,-0.6241 2.19444,-1.4229 3.15625,-2.3437 0.96177,-0.9209 1.85815,-1.9047 2.65625,-2.9688 0.79806,-1.0641 1.51218,-2.0155 2.1875,-2.875 l 0.28125,-0.094 0.34375,5.7813 c 0.0204,0.2865 0.0636,0.5675 0.125,0.8437 0.0614,0.2763 0.18057,0.5562 0.375,0.7813 0.19438,0.2251 0.46459,0.3982 0.8125,0.5312 0.34785,0.1331 0.81277,0.1875 1.40625,0.1875 0.85944,0 1.4856,-0.2049 1.84375,-0.5937 0.35808,-0.3888 0.64987,-0.9832 0.875,-1.7813 0.0613,-0.2046 0.0943,-0.4969 0.125,-0.9062 0.0306,-0.4093 0.0625,-0.8742 0.0625,-1.4063 -3e-5,-1.1664 -0.0534,-2.2689 -0.125,-3.3125 -0.0716,-1.0436 -0.0938,-2.0814 -0.0937,-3.125 -3e-5,-0.6139 0.0329,-1.3264 0.125,-2.0938 0.0921,-0.7673 0.22149,-1.5569 0.375,-2.4062 0.15344,-0.8492 0.33681,-1.7132 0.53125,-2.5625 0.19437,-0.8492 0.3783,-1.6491 0.5625,-2.4063 0.32739,-1.2891 0.62996,-2.5647 0.90625,-3.8437 0.27622,-1.27895 0.40621,-2.37004 0.40625,-3.25 -4e-5,-0.75712 -0.0755,-1.36283 -0.21875,-1.84375 -0.14328,-0.48087 -0.33855,-0.86973 -0.625,-1.15625 -0.28653,-0.28646 -0.65326,-0.48117 -1.0625,-0.59375 -0.4093,-0.11253 -0.86345,-0.18747 -1.375,-0.1875 z m 266.40625,0.78125 c -1.35062,3e-5 -2.42069,0.4218 -3.21875,1.28125 -0.67532,0.041 -1.3344,0.16016 -1.96875,0.375 -0.63439,0.2149 -1.09931,0.44086 -1.40625,0.625 -1.9236,1.18692 -3.63061,2.44146 -5.09375,3.8125 -1.46316,1.37109 -2.70636,2.7863 -3.75,4.2187 -1.04365,1.4325 -1.88666,2.8483 -2.53125,4.25 -0.64461,1.4018 -1.13055,2.7205 -1.4375,3.9688 -0.36835,1.4734 -0.53125,2.867 -0.53125,4.1562 0,1.3302 0.18392,2.5405 0.5625,3.6251 0.37857,1.0846 0.95136,2.0036 1.71875,2.7812 0.76738,0.7777 1.7188,1.393 2.875,1.8125 1.15619,0.4195 2.51803,0.625 4.09375,0.625 1.65753,0 3.15961,-0.2163 4.5,-0.6562 1.34035,-0.44 2.5512,-1.0769 3.65625,-1.875 1.63707,-1.1664 3.12836,-2.4744 4.46875,-3.9376 1.34034,-1.4631 2.49615,-2.9975 3.4375,-4.5937 0.9413,-1.5962 1.67588,-3.2282 2.1875,-4.9063 0.51156,-1.678 0.74996,-3.3208 0.75,-4.9375 -4e-5,-0.6957 -0.0432,-1.3224 -0.125,-1.875 -0.0819,-0.55245 -0.17952,-1.08153 -0.3125,-1.56245 -0.13304,-0.48087 -0.30563,-0.91399 -0.5,-1.34375 -0.19444,-0.42971 -0.39993,-0.89353 -0.625,-1.34375 -0.71626,-1.3915 -1.62397,-2.47291 -2.71875,-3.28125 -1.09483,-0.80829 -2.43511,-1.21872 -4.03125,-1.21875 z m -250.75,0.65625 c -0.39713,0.0518 -0.69907,0.19908 -0.90625,0.40625 -0.27627,0.27629 -0.52491,0.78491 -0.75,1.5625 -0.14326,0.53208 -0.26195,1.11565 -0.34375,1.75 -0.0819,0.63439 -0.12501,1.27191 -0.125,1.90625 l 0,0.5 c 0,0.1535 0.0108,0.35789 0.0312,0.5625 -0.24557,1.412 -0.52712,2.9578 -0.875,4.6562 -0.34789,1.6985 -0.72541,3.4277 -1.09375,5.1875 -0.36835,1.7599 -0.71462,3.4999 -1.0625,5.2188 -0.34789,1.7189 -0.67148,3.2863 -0.9375,4.7188 -0.10238,0.3683 -0.125,0.7459 -0.125,1.0937 0,0.7572 0.19525,1.406 0.625,1.9688 0.42973,0.5627 1.07802,0.8437 1.9375,0.8437 0.55251,0 1.04924,-0.098 1.46875,-0.3125 0.4195,-0.2148 0.74364,-0.4743 0.96875,-0.7812 0.20462,-0.4911 0.30285,-1.0531 0.34375,-1.6875 0.0409,-0.6344 0.0625,-1.2611 0.0625,-1.875 l 0,-0.7813 c 0.49111,-2.0464 0.99863,-4.0026 1.5,-5.875 0.50135,-1.8724 0.96572,-3.6237 1.375,-5.2813 0.51158,-0.6957 1.0957,-1.5052 1.78125,-2.375 0.68551,-0.8696 1.43144,-1.67 2.25,-2.4375 0.81853,-0.7673 1.7149,-1.43662 2.65625,-1.9687 0.9413,-0.53203 1.92508,-0.78123 2.96875,-0.78125 0.10229,10e-5 0.22094,-0.0102 0.34375,0 0.12275,0.0102 0.2414,0.0421 0.34375,0.0625 0.0614,0.0614 0.13742,0.18062 0.25,0.375 0.11252,0.19443 0.24196,0.39992 0.375,0.625 0.13299,0.22512 0.284,0.46242 0.4375,0.68745 0.15345,0.2252 0.29423,0.4085 0.4375,0.5313 0.32739,0.2865 0.74861,0.5136 1.25,0.6875 0.50133,0.1739 0.90209,0.25 1.25,0.25 0.34785,0 0.68223,-0.087 0.96875,-0.2813 0.28646,-0.1943 0.5351,-0.4532 0.75,-0.75 0.21483,-0.2967 0.37719,-0.61057 0.5,-0.9687 0.12277,-0.35809 0.18747,-0.69303 0.1875,-1 -3e-5,-0.79806 -0.2271,-1.57633 -0.6875,-2.34375 -0.46047,-0.76736 -1.04348,-1.42588 -1.71875,-1.9375 -0.4093,-0.30693 -0.81006,-0.54478 -1.25,-0.71875 -0.44,-0.17392 -0.87201,-0.30391 -1.28125,-0.40625 -0.34791,-0.10229 -0.69363,-0.1886 -1.03125,-0.25 -0.33767,-0.0614 -0.68339,-0.0937 -1.03125,-0.0937 -0.87996,3e-5 -1.72296,0.17262 -2.53125,0.5 -0.80834,0.32745 -1.58606,0.74867 -2.3125,1.25 -0.72648,0.50139 -1.38667,1.06339 -2.03125,1.6875 -0.64463,0.62417 -1.27079,1.21908 -1.84375,1.8125 0,-0.20461 0.0108,-0.46459 0.0312,-0.8125 0.0204,-0.34786 0.0312,-0.68223 0.0312,-0.96875 0,-0.53203 -0.0323,-1.06111 -0.0937,-1.5625 -0.0614,-0.50133 -0.20163,-0.92366 -0.40625,-1.3125 -0.20465,-0.38878 -0.48566,-0.70214 -0.84375,-0.9375 -0.35813,-0.2353 -0.81282,-0.34372 -1.40625,-0.34375 -0.15348,10e-6 -0.30512,-0.0173 -0.4375,0 z m 271.46875,0.34375 c -0.63439,3e-5 -1.1419,0.12891 -1.5,0.34375 -0.35812,0.2149 -0.62834,0.51802 -0.8125,0.9375 -0.18418,0.41953 -0.2716,0.9276 -0.3125,1.53125 -0.0409,0.6037 -0.0625,1.28491 -0.0625,2.0625 -1e-5,0.73672 -0.0642,1.56781 -0.15625,2.4375 -0.0921,0.86975 -0.25445,1.88645 -0.5,3.09375 l -1.46875,7.125 c -0.30696,1.4734 -0.58796,2.8455 -0.84375,4.0937 -0.2558,1.2483 -0.51468,2.4376 -0.75,3.5938 -0.23534,1.1562 -0.45217,2.3018 -0.6875,3.4375 -0.23533,1.1358 -0.48398,2.3137 -0.75,3.5313 -0.26604,1.2176 -0.55782,2.5249 -0.875,3.9062 -0.3172,1.3813 -0.68448,2.905 -1.09375,4.5625 -0.10228,0.3684 -0.15625,0.7039 -0.15625,1.0313 0,1.1869 0.73569,1.7812 2.25,1.7812 0.26602,0 0.56859,-0.011 0.90625,-0.062 0.33764,-0.051 0.67258,-0.1374 1,-0.25 0.32741,-0.1125 0.60842,-0.2425 0.84375,-0.4062 0.23533,-0.1637 0.40735,-0.3795 0.46875,-0.625 0.0818,-0.4093 0.17948,-0.8958 0.3125,-1.4688 0.13301,-0.573 0.26299,-1.1991 0.40625,-1.8437 0.14324,-0.6446 0.29424,-1.2935 0.4375,-1.9688 0.14323,-0.6753 0.27267,-1.3236 0.375,-1.9375 0.1637,-0.9822 0.37998,-2.1062 0.65625,-3.375 0.27625,-1.2687 0.62197,-2.6084 1.03125,-4 0.73668,0.4298 1.49339,0.7534 2.28125,0.9375 0.78784,0.1842 1.59847,0.2813 2.4375,0.2813 0.59343,0 1.25306,-0.1073 2,-0.2813 0.7469,-0.1739 1.56722,-0.4333 2.40625,-0.7812 1.24826,-0.5116 2.50225,-1.0742 3.78125,-1.7188 1.27896,-0.6446 2.5216,-1.3473 3.71875,-2.125 1.1971,-0.7776 2.3103,-1.6314 3.34375,-2.5625 1.03338,-0.9311 1.9411,-1.9467 2.71875,-3.0313 0.77759,-1.0845 1.39351,-2.2517 1.84375,-3.5 0.45016,-1.2482 0.65621,-2.5879 0.65625,-4 -4e-5,-1.2073 -0.16294,-2.3642 -0.53125,-3.49995 -0.36838,-1.13571 -0.95085,-2.16152 -1.6875,-3.03125 -0.73673,-0.86968 -1.645,-1.54065 -2.75,-2.0625 -1.10507,-0.52179 -2.40165,-0.78122 -3.875,-0.78125 -0.90042,3e-5 -1.85184,0.0443 -2.875,0.1875 -1.02321,0.14327 -2.02855,0.36923 -3.03125,0.625 -1.00274,0.25582 -1.97517,0.54872 -2.90625,0.9375 -0.93111,0.38884 -1.74175,0.85265 -2.4375,1.34375 0,-0.57296 -0.0426,-1.12417 -0.0937,-1.65625 -0.0512,-0.53202 -0.19195,-1.0282 -0.4375,-1.4375 -0.24558,-0.40924 -0.61342,-0.71292 -1.125,-0.96875 -0.51161,-0.25577 -1.2354,-0.40622 -2.15625,-0.40625 z m -359.25,0.71875 c -1.06413,3e-5 -2.1342,0.0977 -3.21875,0.3125 -1.08459,0.21489 -2.19669,0.71162 -3.28125,1.46875 -2.80353,1.94407 -5.13838,4.27892 -7.03125,7.03125 -1.89289,2.7524 -3.22238,5.7668 -4,9 -0.18417,0.7162 -0.31415,1.3225 -0.40625,1.875 -0.0921,0.5525 -0.15626,1.1134 -0.15625,1.625 -10e-6,1.146 0.23785,2.1406 0.71875,3 0.48089,0.8595 1.25917,1.7031 2.34375,2.5625 0.3888,0.307 0.88497,0.5659 1.4375,0.75 0.55251,0.1842 1.13608,0.2813 1.75,0.2813 0.75714,0 1.56778,-0.2055 2.4375,-0.625 0.86969,-0.4195 1.74505,-0.9486 2.625,-1.5625 0.87992,-0.6139 1.71269,-1.2622 2.53125,-1.9375 0.81853,-0.6753 1.57468,-1.2589 2.25,-1.7501 -2e-5,1.2279 -0.0755,2.2651 -0.21875,3.0938 -0.14327,0.8288 -0.21877,1.5316 -0.21875,2.125 0,0.2865 0.0323,0.5352 0.0937,0.75 0.0614,0.2149 0.20159,0.4091 0.40625,0.5625 0.20462,0.1535 0.4964,0.2619 0.875,0.3438 0.37856,0.082 0.8656,0.125 1.5,0.125 0.4911,0 0.91177,-0.097 1.21875,-0.2813 0.30693,-0.1841 0.54534,-0.4004 0.75,-0.6562 0.20461,-0.2558 0.37665,-0.505 0.46875,-0.7813 0.0921,-0.2762 0.15735,-0.5345 0.21875,-0.7187 0.18415,-0.6344 0.3136,-1.2946 0.375,-2.0313 0.0614,-0.7367 0.13685,-1.5576 0.21875,-2.4375 l 4.03125,-16.1875 c 0.16367,-0.4911 0.33626,-0.95659 0.5,-1.4375 0.16367,-0.48088 0.24996,-0.99917 0.25,-1.53125 -4e-5,-0.38878 -0.075,-0.76686 -0.1875,-1.125 -0.11258,-0.35809 -0.28572,-0.66121 -0.53125,-0.9375 -0.24559,-0.27623 -0.55951,-0.49252 -0.96875,-0.65625 -0.40931,-0.16367 -0.91737,-0.24997 -1.53125,-0.25 -0.32744,0 -0.6408,0.0216 -0.9375,0.0625 -0.29675,0.041 -0.68561,0.11646 -1.15625,0.21875 -0.47069,-0.0614 -1.01056,-0.1261 -1.59375,-0.1875 -0.58324,-0.0614 -1.09186,-0.0937 -1.5625,-0.0937 z m 125.5625,1.1875 c -1.39154,2e-5 -2.69947,0.24811 -3.9375,0.71875 -1.23807,0.47069 -2.39443,1.0656 -3.46875,1.8125 -1.07436,0.74695 -2.04734,1.58939 -2.9375,2.5 -0.89018,0.91065 -1.7105,1.81835 -2.40625,2.71875 -0.69578,0.9004 -1.2481,1.7326 -1.71875,2.5 -0.47068,0.7674 -0.83741,1.3623 -1.0625,1.8125 -0.77763,0.2047 -1.40435,0.6361 -1.875,1.25 -0.47067,0.6139 -0.6875,1.3388 -0.6875,2.2187 0,0.4503 0.10841,0.796 0.34375,1.0313 0.23533,0.2353 0.48397,0.3653 0.75,0.4062 -0.26603,1.1869 -0.40626,2.2883 -0.40625,3.25 -1e-5,1.1869 0.16235,2.1923 0.5,3.0313 0.33765,0.839 0.80145,1.5521 1.34375,2.125 0.54227,0.573 1.14798,1.0272 1.84375,1.375 0.69575,0.3479 1.40876,0.5971 2.125,0.7813 0.71621,0.1842 1.39742,0.3136 2.0625,0.375 0.66505,0.061 1.25886,0.094 1.75,0.094 2.53747,0 4.91546,-0.3463 7.15625,-1.0625 2.24074,-0.7162 4.43425,-1.9157 6.5625,-3.5938 0.47063,-0.3888 0.84927,-0.8429 1.15625,-1.375 0.30693,-0.5321 0.52265,-1.0929 0.625,-1.625 0.0204,-0.1023 0.0209,-0.2215 0.0312,-0.375 0.0104,-0.1535 0.0312,-0.305 0.0312,-0.4688 -3e-5,-0.2864 -0.0755,-0.5566 -0.21875,-0.8125 -0.14327,-0.2557 -0.48844,-0.3749 -1,-0.375 -0.51162,10e-5 -1.08496,0.1624 -1.75,0.5 -0.66509,0.3377 -1.35708,0.7589 -2.09375,1.25 -0.573,0.3889 -1.21052,0.7573 -1.90625,1.1563 -0.69579,0.399 -1.46218,0.7874 -2.25,1.125 -0.78787,0.3377 -1.62009,0.5977 -2.5,0.8125 -0.87996,0.2149 -1.78823,0.3438 -2.75,0.3438 -1.65757,0 -2.96494,-0.3452 -3.90625,-1 -0.94134,-0.6549 -1.40627,-1.5632 -1.40625,-2.7501 -2e-5,-0.532 0.0545,-1.0934 0.1875,-1.6562 0.133,-0.5627 0.31581,-1.0067 0.5,-1.375 0.83899,-0.082 1.82278,-0.2215 2.96875,-0.375 1.14595,-0.1535 2.32444,-0.3698 3.5625,-0.6563 1.23803,-0.2864 2.48068,-0.6327 3.71875,-1.0625 1.23803,-0.4297 2.3836,-0.9803 3.4375,-1.625 1.05385,-0.6445 1.97236,-1.3905 2.75,-2.25 0.77759,-0.8594 1.30723,-1.854 1.59375,-3 0.18416,-0.6343 0.28122,-1.3042 0.28125,-2 -3e-5,-0.81847 -0.15104,-1.57518 -0.4375,-2.2812 -0.28652,-0.70597 -0.7083,-1.33213 -1.28125,-1.84375 -0.57301,-0.51156 -1.30759,-0.90098 -2.1875,-1.1875 -0.87996,-0.28646 -1.90688,-0.43748 -3.09375,-0.4375 z m 179.875,0 c -1.39155,2e-5 -2.69948,0.24811 -3.9375,0.71875 -1.23807,0.47069 -2.39443,1.0656 -3.46875,1.8125 -1.07436,0.74695 -2.04735,1.58939 -2.9375,2.5 -0.89018,0.91065 -1.67925,1.81835 -2.375,2.71875 -0.69577,0.9004 -1.27935,1.7326 -1.75,2.5 -0.47067,0.7674 -0.83741,1.3623 -1.0625,1.8125 -0.77763,0.2047 -1.40434,0.6361 -1.875,1.25 -0.47067,0.6139 -0.68751,1.3388 -0.6875,2.2187 -1e-5,0.4503 0.10841,0.796 0.34375,1.0313 0.23532,0.2353 0.48397,0.3653 0.75,0.4062 -0.26603,1.1869 -0.40625,2.2883 -0.40625,3.25 0,1.1869 0.16234,2.1923 0.5,3.0313 0.33764,0.839 0.80146,1.5521 1.34375,2.125 0.54228,0.573 1.14797,1.0272 1.84375,1.375 0.69575,0.3479 1.40876,0.5971 2.125,0.7813 0.71622,0.1842 1.39742,0.3136 2.0625,0.375 0.66506,0.061 1.25885,0.094 1.75,0.094 2.53747,0 4.91547,-0.3463 7.15625,-1.0625 2.24075,-0.7162 4.43426,-1.9157 6.5625,-3.5938 0.47063,-0.3888 0.84926,-0.8429 1.15625,-1.375 0.30692,-0.5321 0.52265,-1.0929 0.625,-1.625 0.0204,-0.1023 0.0209,-0.2215 0.0312,-0.375 0.0104,-0.1535 0.0312,-0.305 0.0312,-0.4688 -3e-5,-0.2864 -0.0755,-0.5566 -0.21875,-0.8125 -0.14328,-0.2557 -0.48844,-0.3749 -1,-0.375 -0.51162,10e-5 -1.08496,0.1624 -1.75,0.5 -0.6651,0.3377 -1.35709,0.7589 -2.09375,1.25 -0.57301,0.3889 -1.21051,0.7573 -1.90625,1.1563 -0.69579,0.399 -1.46217,0.7874 -2.25,1.125 -0.78787,0.3377 -1.62008,0.5977 -2.5,0.8125 -0.87995,0.2149 -1.78822,0.3438 -2.75,0.3438 -1.65757,0 -2.96494,-0.3452 -3.90625,-1 -0.94134,-0.6549 -1.40626,-1.5632 -1.40625,-2.7501 -10e-6,-0.532 0.0545,-1.0934 0.1875,-1.6562 0.133,-0.5627 0.31582,-1.0067 0.5,-1.375 0.839,-0.082 1.82277,-0.2215 2.96875,-0.375 1.14595,-0.1535 2.32443,-0.3698 3.5625,-0.6563 1.23803,-0.2864 2.48068,-0.6327 3.71875,-1.0625 1.23802,-0.4297 2.38359,-0.9803 3.4375,-1.625 1.05385,-0.6445 1.97235,-1.3905 2.75,-2.25 0.77759,-0.8594 1.30723,-1.854 1.59375,-3 0.18416,-0.6343 0.28122,-1.3042 0.28125,-2 -3e-5,-0.81847 -0.15103,-1.57518 -0.4375,-2.2812 -0.28652,-0.70597 -0.7083,-1.33213 -1.28125,-1.84375 -0.57301,-0.51156 -1.30759,-0.90098 -2.1875,-1.1875 -0.87996,-0.28646 -1.90688,-0.43748 -3.09375,-0.4375 z m 115.65625,0 c -1.3916,2e-5 -2.6995,0.24811 -3.9375,0.71875 -1.2381,0.47069 -2.3944,1.0656 -3.4687,1.8125 -1.0744,0.74695 -2.0474,1.58939 -2.93755,2.5 -0.89018,0.91065 -1.67925,1.81835 -2.375,2.71875 -0.69577,0.9004 -1.27934,1.7326 -1.75,2.5 -0.47067,0.7674 -0.83741,1.3623 -1.0625,1.8125 -0.77763,0.2047 -1.40434,0.6361 -1.875,1.25 -0.47067,0.6139 -0.68751,1.3388 -0.6875,2.2187 -1e-5,0.4503 0.10841,0.796 0.34375,1.0313 0.23532,0.2353 0.48397,0.3653 0.75,0.4062 -0.26603,1.1869 -0.40625,2.2883 -0.40625,3.25 0,1.1869 0.19359,2.1923 0.53125,3.0313 0.33764,0.839 0.77021,1.5521 1.3125,2.125 0.54228,0.573 1.14797,1.0272 1.84375,1.375 0.69575,0.3479 1.40876,0.5971 2.125,0.7813 0.71622,0.1842 1.39741,0.3136 2.0625,0.375 0.66505,0.061 1.25895,0.094 1.75005,0.094 2.5375,0 4.9154,-0.3463 7.1562,-1.0625 2.2408,-0.7162 4.4343,-1.9157 6.5625,-3.5938 0.4706,-0.3888 0.8492,-0.8429 1.1563,-1.375 0.3069,-0.5321 0.5226,-1.0929 0.625,-1.625 0.02,-0.1023 0.021,-0.2215 0.031,-0.375 0,-0.1535 0.031,-0.305 0.031,-0.4688 10e-5,-0.2864 -0.076,-0.5566 -0.2187,-0.8125 -0.1433,-0.2557 -0.4884,-0.3749 -1,-0.375 -0.5116,10e-5 -1.0849,0.1624 -1.75,0.5 -0.6651,0.3377 -1.3572,0.7589 -2.0937,1.25 -0.573,0.3889 -1.2106,0.7573 -1.9063,1.1563 -0.6958,0.399 -1.4308,0.7874 -2.2187,1.125 -0.7878,0.3377 -1.6201,0.5977 -2.5,0.8125 -0.88,0.2149 -1.8196,0.3438 -2.7813,0.3438 -1.6576,0 -2.96493,-0.3452 -3.90625,-1 -0.94134,-0.6549 -1.40626,-1.5632 -1.40625,-2.7501 -10e-6,-0.532 0.0857,-1.0934 0.21875,-1.6562 0.133,-0.5627 0.28457,-1.0067 0.46875,-1.375 0.839,-0.082 1.82279,-0.2215 2.9687,-0.375 1.1461,-0.1535 2.3558,-0.3698 3.5938,-0.6563 1.2381,-0.2864 2.4494,-0.6327 3.6875,-1.0625 1.238,-0.4297 2.3836,-0.9803 3.4375,-1.625 1.0538,-0.6445 1.9724,-1.3905 2.75,-2.25 0.7776,-0.8594 1.3072,-1.854 1.5938,-3 0.1842,-0.6343 0.2812,-1.3042 0.2812,-2 0,-0.81847 -0.151,-1.57518 -0.4375,-2.2812 -0.2865,-0.70597 -0.7083,-1.33213 -1.2813,-1.84375 -0.573,-0.51156 -1.3075,-0.90098 -2.1874,-1.1875 -0.88,-0.28646 -1.907,-0.43748 -3.0938,-0.4375 z m -81.875,2.5625 c 0.14322,0.36837 0.28455,0.74645 0.46875,1.125 0.18414,0.3786 0.3783,0.71464 0.5625,1.0625 0.30692,0.573 0.55557,1.1021 0.75,1.5625 0.19441,0.4604 0.28122,0.968 0.28125,1.5 -3e-5,0.5321 -0.0545,1.1156 -0.1875,1.75 -0.13304,0.6344 -0.2846,1.315 -0.46875,2.0312 -0.28652,1.146 -0.79403,2.3892 -1.5,3.75 -0.70602,1.3609 -1.58138,2.6257 -2.625,3.8125 -1.04367,1.1869 -2.22215,2.181 -3.5625,2.9688 -1.34038,0.7879 -2.78853,1.1875 -4.34375,1.1875 -0.83903,0 -1.57305,-0.1396 -2.15625,-0.375 -0.58322,-0.2353 -1.0487,-0.5492 -1.4375,-0.9688 -0.38882,-0.4195 -0.66983,-0.9167 -0.84375,-1.5 -0.17392,-0.5832 -0.28126,-1.2309 -0.28125,-1.9062 0,-0.3888 0.0426,-0.768 0.0937,-1.1875 0.0512,-0.4195 0.12721,-0.8731 0.25,-1.3438 0.14324,-0.6139 0.39188,-1.2945 0.75,-2.0312 0.3581,-0.7367 0.80034,-1.4826 1.28125,-2.25 0.48088,-0.7674 1.02131,-1.5133 1.625,-2.25 0.60367,-0.7367 1.24117,-1.4281 1.90625,-2.0625 0.66505,-0.6344 1.33547,-1.1856 2.03125,-1.6563 0.69574,-0.47059 1.38718,-0.83732 2.0625,-1.06245 1.02316,-0.10229 1.83436,-0.20048 2.46875,-0.34375 0.63435,-0.14322 1.13163,-0.32604 1.5,-0.5 0.36832,-0.17392 0.65955,-0.34761 0.84375,-0.5625 0.18414,-0.21485 0.36752,-0.46349 0.53125,-0.75 z m -337.9375,0.625 c 0.34786,3e-5 0.59594,0.15048 0.71875,0.40625 0.12277,0.25582 0.15622,0.51524 0.15625,0.78125 -3e-5,0.61393 -0.0437,1.2849 -0.15625,2.0625 -0.11257,0.7776 -0.24257,1.4691 -0.40625,2.0625 -0.28652,1.0232 -0.75088,2.0603 -1.375,3.0937 -0.62416,1.0335 -1.34796,2.0491 -2.15625,3.0313 -0.80834,0.9823 -1.65189,1.9223 -2.5625,2.8125 -0.91065,0.8902 -1.80758,1.69 -2.6875,2.4062 -0.65485,0.5321 -1.34684,0.9652 -2.09375,1.3438 -0.74693,0.3786 -1.57804,0.5937 -2.4375,0.5937 -0.55253,0 -0.8988,-0.2475 -1.0625,-0.6875 -0.16376,-0.4399 -0.25002,-0.9162 -0.25,-1.4687 -2e-5,-0.532 0.0642,-1.0617 0.15625,-1.5938 0.0921,-0.532 0.1681,-0.9635 0.25,-1.25 0.26601,-1.0231 0.65487,-2.0506 1.15625,-3.125 0.50134,-1.0743 1.08547,-2.112 1.78125,-3.125 0.69575,-1.0129 1.46325,-1.9848 2.3125,-2.875 0.84923,-0.8901 1.74615,-1.6576 2.6875,-2.31245 0.9413,-0.65481 1.92453,-1.17367 2.9375,-1.5625 1.01293,-0.38879 2.02851,-0.59372 3.03125,-0.59375 z m 372.4375,1.21875 c 0.63435,3e-5 1.16454,0.0976 1.625,0.3125 0.4604,0.21489 0.83848,0.50667 1.125,0.875 0.28646,0.36835 0.51297,0.79015 0.65625,1.28125 0.14317,0.4911 0.21871,1.0208 0.21875,1.5937 -4e-5,1.4121 -0.33441,2.7086 -0.96875,3.875 -0.63441,1.1665 -1.43425,2.215 -2.40625,3.1563 -0.97204,0.9413 -2.02054,1.7735 -3.15625,2.5 -1.13575,0.7265 -2.21605,1.3634 -3.21875,1.875 -0.3479,0.1842 -0.73732,0.3681 -1.1875,0.5625 -0.45022,0.1944 -0.92537,0.3675 -1.40625,0.5312 -0.48091,0.1638 -0.95662,0.304 -1.4375,0.4063 -0.48091,0.1023 -0.9237,0.1563 -1.3125,0.1562 -0.0819,10e-5 -0.23343,-0.043 -0.46875,-0.094 -0.23534,-0.051 -0.51635,-0.095 -0.84375,-0.1562 -0.32743,-0.061 -0.65213,-0.1261 -1,-0.1875 -0.3479,-0.061 -0.69305,-0.1154 -1,-0.1563 l 3.09375,-12.0938 c 0.839,-0.1023 1.6275,-0.3293 2.34375,-0.6875 0.71621,-0.3581 1.3645,-0.7793 1.9375,-1.25 0.63435,-0.4501 1.25028,-0.839 1.84375,-1.1562 0.59342,-0.31716 1.18779,-0.57659 1.78125,-0.78125 0.59342,-0.20462 1.19857,-0.3454 1.8125,-0.4375 0.61389,-0.092 1.27296,-0.12497 1.96875,-0.125 z m -249.0625,0.40625 c 0.57296,2e-5 1.05946,0.16126 1.46875,0.4375 0.40925,0.27628 0.59373,0.6663 0.59375,1.2187 -2e-5,0.1024 -2e-5,0.1995 0,0.2813 0,0.082 -0.0216,0.1789 -0.0625,0.2812 -0.16373,0.5935 -0.49977,1.1657 -1.0625,1.6875 -0.56277,0.5219 -1.30814,0.9868 -2.21875,1.4063 -0.91065,0.4195 -1.99096,0.755 -3.21875,1.0312 -1.22784,0.2763 -2.55789,0.471 -4.03125,0.5938 0.3274,-0.6548 0.78154,-1.3792 1.375,-2.1875 0.59343,-0.8083 1.26385,-1.5752 2.03125,-2.2813 0.76737,-0.7059 1.59902,-1.2793 2.46875,-1.74995 0.86968,-0.47065 1.75583,-0.71873 2.65625,-0.71875 z m 179.875,0 c 0.57295,2e-5 1.05945,0.16126 1.46875,0.4375 0.40925,0.27628 0.59372,0.6663 0.59375,1.2187 -3e-5,0.1024 -3e-5,0.1995 0,0.2813 0,0.082 0.01,0.1789 -0.0312,0.2812 -0.16374,0.5935 -0.53103,1.1657 -1.09375,1.6875 -0.56278,0.5219 -1.30815,0.9868 -2.21875,1.4063 -0.91066,0.4195 -1.99095,0.755 -3.21875,1.0312 -1.22783,0.2763 -2.55788,0.471 -4.03125,0.5938 0.32741,-0.6548 0.78154,-1.3792 1.375,-2.1875 0.59343,-0.8083 1.26384,-1.5752 2.03125,-2.2813 0.76736,-0.7059 1.59903,-1.2793 2.46875,-1.74995 0.86968,-0.47065 1.75583,-0.71873 2.65625,-0.71875 z m 115.6563,0 c 0.573,2e-5 1.0594,0.16126 1.4687,0.4375 0.4092,0.27628 0.625,0.6663 0.625,1.2187 l 0,0.2813 c 0,0.082 -0.021,0.1789 -0.062,0.2812 -0.1637,0.5935 -0.5309,1.1657 -1.0938,1.6875 -0.5626,0.5219 -1.3081,0.9868 -2.2187,1.4063 -0.9107,0.4195 -1.9909,0.755 -3.2187,1.0312 -1.2279,0.2763 -2.558,0.471 -4.0313,0.5938 0.32741,-0.6548 0.78152,-1.3792 1.375,-2.1875 0.5934,-0.8083 1.2639,-1.5752 2.0313,-2.2813 0.7673,-0.7059 1.5989,-1.2793 2.4687,-1.74995 0.8696,-0.47065 1.7559,-0.71873 2.6563,-0.71875 z m -238.68755,1.1562 c 1.94403,3.7858 4.87267,7.8061 8.78125,12.0625 -4.33831,2.7626 -8.38018,4.125 -12.125,4.125 -1.75989,0 -3.38062,-0.4978 -4.84375,-1.5312 -1.46316,-1.0334 -2.18751,-2.4384 -2.1875,-4.2188 -1e-5,-2.0872 0.78962,-3.9776 2.40625,-5.625 1.61662,-1.6473 4.24214,-3.2152 7.84375,-4.75 z"
       id="path5193"
       sodipodi:nodetypes="cccccccccsccccccccsssccccccccsscscsccccccccccsssccccccccccccccccsccccccccccccccccccccccccccccccccccccccccscccsccscccccccccccccccccccscccccccccccccccccccccscccccsccccsccccccsccccccccsccsscsccsccccccccccccscccccccsscccccccccccccccccsccccsccccccccccccccscsccccccccccccccccccsccccccccccccccccccccccccccscscccccccscccccccscsccccsccccccscccccsccccccccscscccccssccccccsccccssccscsscccccscccccccccsccccscsccccccccccccccssscsscsscccccccccccccccccscssscscsccsscscscccccccccccccccccccccccscssccccccccssccccssccccssscscccccsccsccccccccccccccccccccccccscsccccsccccsccccsccccsccccccccccscccccssscsscccsccscsscccccccsccccsccsccssssccccccccccssscccccscccscsscccccccccsccsccsccssscccccccccscssscccccscccscssccccccccccccsccccccccccsccccccccccccccssccsccccsssccccccccccccccscsscccccsssccccccccsscsccccccccsccccccccccscccscsccccccccccsssccccssccssccccccccsccscc" />
  </g>
</svg>
